# Synthetic 12-segment smooth control wheel for public preflight checkout
# Units: meters; +X travel, +Y axle, +Z up
v 0.12 -0.05 0
v 0.103923048 -0.05 0.06
v 0.06 -0.05 0.103923048
v 0 -0.05 0.12
v -0.06 -0.05 0.103923048
v -0.103923048 -0.05 0.06
v -0.12 -0.05 0
v -0.103923048 -0.05 -0.06
v -0.06 -0.05 -0.103923048
v -0 -0.05 -0.12
v 0.06 -0.05 -0.103923048
v 0.103923048 -0.05 -0.06
v 0.12 0.05 0
v 0.103923048 0.05 0.06
v 0.06 0.05 0.103923048
v 0 0.05 0.12
v -0.06 0.05 0.103923048
v -0.103923048 0.05 0.06
v -0.12 0.05 0
v -0.103923048 0.05 -0.06
v -0.06 0.05 -0.103923048
v -0 0.05 -0.12
v 0.06 0.05 -0.103923048
v 0.103923048 0.05 -0.06
v 0 -0.05 0
v 0 0.05 0
f 1 2 14
f 1 14 13
f 2 3 15
f 2 15 14
f 3 4 16
f 3 16 15
f 4 5 17
f 4 17 16
f 5 6 18
f 5 18 17
f 6 7 19
f 6 19 18
f 7 8 20
f 7 20 19
f 8 9 21
f 8 21 20
f 9 10 22
f 9 22 21
f 10 11 23
f 10 23 22
f 11 12 24
f 11 24 23
f 12 1 13
f 12 13 24
f 25 1 2
f 26 14 13
f 25 2 3
f 26 15 14
f 25 3 4
f 26 16 15
f 25 4 5
f 26 17 16
f 25 5 6
f 26 18 17
f 25 6 7
f 26 19 18
f 25 7 8
f 26 20 19
f 25 8 9
f 26 21 20
f 25 9 10
f 26 22 21
f 25 10 11
f 26 23 22
f 25 11 12
f 26 24 23
f 25 12 1
f 26 13 24
